<mxfile host="www.draw.io" modified="2019-11-04T06:56:04.003Z" agent="Mozilla/5.0 (Windows NT 6.1; Win64; x64) AppleWebKit/537.36 (KHTML, like Gecko) Chrome/78.0.3904.70 Safari/537.36" etag="Xh_MmKb-wCCVrxPPOJyG" version="12.1.9" type="github" pages="1">
  <diagram id="Nm2MGBQXB-lMD8GcMdS7" name="第 1 页">
    <mxGraphModel dx="1886" dy="858" grid="1" gridSize="10" guides="1" tooltips="1" connect="1" arrows="1" fold="1" page="1" pageScale="1" pageWidth="1400" pageHeight="850" math="0" shadow="0">
      <root>
        <mxCell id="0"/>
        <mxCell id="1" parent="0"/>
        <mxCell id="reZb2tm7C-XP5V8WI9Gy-15" style="edgeStyle=orthogonalEdgeStyle;rounded=0;orthogonalLoop=1;jettySize=auto;html=1;exitX=1;exitY=0.5;exitDx=0;exitDy=0;entryX=0;entryY=0.5;entryDx=0;entryDy=0;" edge="1" parent="1" source="reZb2tm7C-XP5V8WI9Gy-12" target="reZb2tm7C-XP5V8WI9Gy-34">
          <mxGeometry relative="1" as="geometry">
            <mxPoint x="370" y="200" as="targetPoint"/>
          </mxGeometry>
        </mxCell>
        <mxCell id="reZb2tm7C-XP5V8WI9Gy-12" value="业务订单号申请&lt;br&gt;扣款金额n元" style="shape=parallelogram;perimeter=parallelogramPerimeter;whiteSpace=wrap;html=1;" vertex="1" parent="1">
          <mxGeometry x="100" y="180" width="120" height="60" as="geometry"/>
        </mxCell>
        <mxCell id="reZb2tm7C-XP5V8WI9Gy-38" style="edgeStyle=orthogonalEdgeStyle;rounded=0;orthogonalLoop=1;jettySize=auto;html=1;exitX=1;exitY=0.25;exitDx=0;exitDy=0;entryX=0;entryY=0.5;entryDx=0;entryDy=0;" edge="1" parent="1" source="reZb2tm7C-XP5V8WI9Gy-32" target="reZb2tm7C-XP5V8WI9Gy-37">
          <mxGeometry relative="1" as="geometry"/>
        </mxCell>
        <mxCell id="reZb2tm7C-XP5V8WI9Gy-32" value="冻结金额业务流程" style="swimlane;html=1;startSize=20;horizontal=1;containerType=tree;" vertex="1" parent="1">
          <mxGeometry x="430" y="120" width="300" height="400" as="geometry"/>
        </mxCell>
        <mxCell id="reZb2tm7C-XP5V8WI9Gy-24" value="提现记录冻结m条" style="rounded=0;whiteSpace=wrap;html=1;" vertex="1" parent="reZb2tm7C-XP5V8WI9Gy-32">
          <mxGeometry x="90" y="300" width="120" height="60" as="geometry"/>
        </mxCell>
        <mxCell id="reZb2tm7C-XP5V8WI9Gy-21" value="生效金额冻结y" style="rounded=0;whiteSpace=wrap;html=1;" vertex="1" parent="reZb2tm7C-XP5V8WI9Gy-32">
          <mxGeometry x="90" y="180" width="120" height="60" as="geometry"/>
        </mxCell>
        <mxCell id="reZb2tm7C-XP5V8WI9Gy-13" value="未生效订单冻结x" style="rounded=0;whiteSpace=wrap;html=1;" vertex="1" parent="reZb2tm7C-XP5V8WI9Gy-32">
          <mxGeometry x="90" y="60" width="120" height="60" as="geometry"/>
        </mxCell>
        <mxCell id="reZb2tm7C-XP5V8WI9Gy-18" value="x&amp;lt;t" style="rhombus;whiteSpace=wrap;html=1;" vertex="1" parent="reZb2tm7C-XP5V8WI9Gy-32">
          <mxGeometry x="210" y="110" width="80" height="80" as="geometry"/>
        </mxCell>
        <mxCell id="reZb2tm7C-XP5V8WI9Gy-19" style="edgeStyle=orthogonalEdgeStyle;rounded=0;orthogonalLoop=1;jettySize=auto;html=1;exitX=1;exitY=0.5;exitDx=0;exitDy=0;entryX=0.5;entryY=0;entryDx=0;entryDy=0;" edge="1" parent="reZb2tm7C-XP5V8WI9Gy-32" source="reZb2tm7C-XP5V8WI9Gy-13" target="reZb2tm7C-XP5V8WI9Gy-18">
          <mxGeometry relative="1" as="geometry"/>
        </mxCell>
        <mxCell id="reZb2tm7C-XP5V8WI9Gy-22" style="edgeStyle=orthogonalEdgeStyle;rounded=0;orthogonalLoop=1;jettySize=auto;html=1;exitX=0.5;exitY=1;exitDx=0;exitDy=0;entryX=1;entryY=0.5;entryDx=0;entryDy=0;" edge="1" parent="reZb2tm7C-XP5V8WI9Gy-32" source="reZb2tm7C-XP5V8WI9Gy-18" target="reZb2tm7C-XP5V8WI9Gy-21">
          <mxGeometry relative="1" as="geometry"/>
        </mxCell>
        <mxCell id="reZb2tm7C-XP5V8WI9Gy-23" value="x+y&amp;lt;t" style="rhombus;whiteSpace=wrap;html=1;" vertex="1" parent="reZb2tm7C-XP5V8WI9Gy-32">
          <mxGeometry x="10" y="230" width="80" height="80" as="geometry"/>
        </mxCell>
        <mxCell id="reZb2tm7C-XP5V8WI9Gy-26" style="edgeStyle=orthogonalEdgeStyle;rounded=0;orthogonalLoop=1;jettySize=auto;html=1;exitX=0.5;exitY=1;exitDx=0;exitDy=0;entryX=0;entryY=0.5;entryDx=0;entryDy=0;" edge="1" parent="reZb2tm7C-XP5V8WI9Gy-32" source="reZb2tm7C-XP5V8WI9Gy-23" target="reZb2tm7C-XP5V8WI9Gy-24">
          <mxGeometry relative="1" as="geometry"/>
        </mxCell>
        <mxCell id="reZb2tm7C-XP5V8WI9Gy-25" style="edgeStyle=orthogonalEdgeStyle;rounded=0;orthogonalLoop=1;jettySize=auto;html=1;exitX=0;exitY=0.5;exitDx=0;exitDy=0;entryX=0.5;entryY=0;entryDx=0;entryDy=0;" edge="1" parent="reZb2tm7C-XP5V8WI9Gy-32" source="reZb2tm7C-XP5V8WI9Gy-21" target="reZb2tm7C-XP5V8WI9Gy-23">
          <mxGeometry relative="1" as="geometry"/>
        </mxCell>
        <mxCell id="reZb2tm7C-XP5V8WI9Gy-35" style="edgeStyle=orthogonalEdgeStyle;rounded=0;orthogonalLoop=1;jettySize=auto;html=1;exitX=1;exitY=0.5;exitDx=0;exitDy=0;entryX=0;entryY=0.5;entryDx=0;entryDy=0;" edge="1" parent="1" source="reZb2tm7C-XP5V8WI9Gy-34" target="reZb2tm7C-XP5V8WI9Gy-13">
          <mxGeometry relative="1" as="geometry"/>
        </mxCell>
        <mxCell id="reZb2tm7C-XP5V8WI9Gy-34" value="当前待扣款金额 &lt;br&gt;t=t0+n" style="rounded=0;whiteSpace=wrap;html=1;" vertex="1" parent="1">
          <mxGeometry x="271" y="180" width="120" height="60" as="geometry"/>
        </mxCell>
        <mxCell id="reZb2tm7C-XP5V8WI9Gy-37" value="生成未生效扣款记录" style="rounded=0;whiteSpace=wrap;html=1;" vertex="1" parent="1">
          <mxGeometry x="870" y="190" width="130" height="60" as="geometry"/>
        </mxCell>
        <mxCell id="reZb2tm7C-XP5V8WI9Gy-42" style="edgeStyle=orthogonalEdgeStyle;rounded=0;orthogonalLoop=1;jettySize=auto;html=1;exitX=1;exitY=0.5;exitDx=0;exitDy=0;entryX=0;entryY=0.5;entryDx=0;entryDy=0;" edge="1" parent="1" source="reZb2tm7C-XP5V8WI9Gy-43" target="reZb2tm7C-XP5V8WI9Gy-56">
          <mxGeometry relative="1" as="geometry">
            <mxPoint x="370" y="640" as="targetPoint"/>
          </mxGeometry>
        </mxCell>
        <mxCell id="reZb2tm7C-XP5V8WI9Gy-43" value="业务订单号申请&lt;br&gt;扣款金额n元" style="shape=parallelogram;perimeter=parallelogramPerimeter;whiteSpace=wrap;html=1;" vertex="1" parent="1">
          <mxGeometry x="100" y="620" width="120" height="60" as="geometry"/>
        </mxCell>
        <mxCell id="reZb2tm7C-XP5V8WI9Gy-44" style="edgeStyle=orthogonalEdgeStyle;rounded=0;orthogonalLoop=1;jettySize=auto;html=1;exitX=1;exitY=0.25;exitDx=0;exitDy=0;entryX=0;entryY=0.5;entryDx=0;entryDy=0;" edge="1" parent="1" source="reZb2tm7C-XP5V8WI9Gy-45" target="reZb2tm7C-XP5V8WI9Gy-57">
          <mxGeometry relative="1" as="geometry"/>
        </mxCell>
        <mxCell id="reZb2tm7C-XP5V8WI9Gy-45" value="冻结金额业务流程" style="swimlane;html=1;startSize=20;horizontal=1;containerType=tree;" vertex="1" parent="1">
          <mxGeometry x="430" y="560" width="300" height="400" as="geometry"/>
        </mxCell>
        <mxCell id="reZb2tm7C-XP5V8WI9Gy-46" value="提现记录冻结m条" style="rounded=0;whiteSpace=wrap;html=1;" vertex="1" parent="reZb2tm7C-XP5V8WI9Gy-45">
          <mxGeometry x="90" y="300" width="120" height="60" as="geometry"/>
        </mxCell>
        <mxCell id="reZb2tm7C-XP5V8WI9Gy-47" value="生效金额冻结y" style="rounded=0;whiteSpace=wrap;html=1;" vertex="1" parent="reZb2tm7C-XP5V8WI9Gy-45">
          <mxGeometry x="90" y="180" width="120" height="60" as="geometry"/>
        </mxCell>
        <mxCell id="reZb2tm7C-XP5V8WI9Gy-48" value="未生效订单冻结x" style="rounded=0;whiteSpace=wrap;html=1;" vertex="1" parent="reZb2tm7C-XP5V8WI9Gy-45">
          <mxGeometry x="90" y="60" width="120" height="60" as="geometry"/>
        </mxCell>
        <mxCell id="reZb2tm7C-XP5V8WI9Gy-49" value="x&amp;lt;t" style="rhombus;whiteSpace=wrap;html=1;" vertex="1" parent="reZb2tm7C-XP5V8WI9Gy-45">
          <mxGeometry x="210" y="110" width="80" height="80" as="geometry"/>
        </mxCell>
        <mxCell id="reZb2tm7C-XP5V8WI9Gy-50" style="edgeStyle=orthogonalEdgeStyle;rounded=0;orthogonalLoop=1;jettySize=auto;html=1;exitX=1;exitY=0.5;exitDx=0;exitDy=0;entryX=0.5;entryY=0;entryDx=0;entryDy=0;" edge="1" parent="reZb2tm7C-XP5V8WI9Gy-45" source="reZb2tm7C-XP5V8WI9Gy-48" target="reZb2tm7C-XP5V8WI9Gy-49">
          <mxGeometry relative="1" as="geometry"/>
        </mxCell>
        <mxCell id="reZb2tm7C-XP5V8WI9Gy-51" style="edgeStyle=orthogonalEdgeStyle;rounded=0;orthogonalLoop=1;jettySize=auto;html=1;exitX=0.5;exitY=1;exitDx=0;exitDy=0;entryX=1;entryY=0.5;entryDx=0;entryDy=0;" edge="1" parent="reZb2tm7C-XP5V8WI9Gy-45" source="reZb2tm7C-XP5V8WI9Gy-49" target="reZb2tm7C-XP5V8WI9Gy-47">
          <mxGeometry relative="1" as="geometry"/>
        </mxCell>
        <mxCell id="reZb2tm7C-XP5V8WI9Gy-52" value="x+y&amp;lt;t" style="rhombus;whiteSpace=wrap;html=1;" vertex="1" parent="reZb2tm7C-XP5V8WI9Gy-45">
          <mxGeometry x="10" y="230" width="80" height="80" as="geometry"/>
        </mxCell>
        <mxCell id="reZb2tm7C-XP5V8WI9Gy-53" style="edgeStyle=orthogonalEdgeStyle;rounded=0;orthogonalLoop=1;jettySize=auto;html=1;exitX=0.5;exitY=1;exitDx=0;exitDy=0;entryX=0;entryY=0.5;entryDx=0;entryDy=0;" edge="1" parent="reZb2tm7C-XP5V8WI9Gy-45" source="reZb2tm7C-XP5V8WI9Gy-52" target="reZb2tm7C-XP5V8WI9Gy-46">
          <mxGeometry relative="1" as="geometry"/>
        </mxCell>
        <mxCell id="reZb2tm7C-XP5V8WI9Gy-54" style="edgeStyle=orthogonalEdgeStyle;rounded=0;orthogonalLoop=1;jettySize=auto;html=1;exitX=0;exitY=0.5;exitDx=0;exitDy=0;entryX=0.5;entryY=0;entryDx=0;entryDy=0;" edge="1" parent="reZb2tm7C-XP5V8WI9Gy-45" source="reZb2tm7C-XP5V8WI9Gy-47" target="reZb2tm7C-XP5V8WI9Gy-52">
          <mxGeometry relative="1" as="geometry"/>
        </mxCell>
        <mxCell id="reZb2tm7C-XP5V8WI9Gy-55" style="edgeStyle=orthogonalEdgeStyle;rounded=0;orthogonalLoop=1;jettySize=auto;html=1;exitX=1;exitY=0.5;exitDx=0;exitDy=0;entryX=0;entryY=0.5;entryDx=0;entryDy=0;" edge="1" parent="1" source="reZb2tm7C-XP5V8WI9Gy-56" target="reZb2tm7C-XP5V8WI9Gy-48">
          <mxGeometry relative="1" as="geometry"/>
        </mxCell>
        <mxCell id="reZb2tm7C-XP5V8WI9Gy-56" value="当前待扣款金额 &lt;br&gt;t=t0+n" style="rounded=0;whiteSpace=wrap;html=1;" vertex="1" parent="1">
          <mxGeometry x="271" y="620" width="120" height="60" as="geometry"/>
        </mxCell>
        <mxCell id="reZb2tm7C-XP5V8WI9Gy-57" value="生成未生效扣款记录" style="rounded=0;whiteSpace=wrap;html=1;" vertex="1" parent="1">
          <mxGeometry x="870" y="630" width="130" height="60" as="geometry"/>
        </mxCell>
        <mxCell id="reZb2tm7C-XP5V8WI9Gy-59" style="edgeStyle=orthogonalEdgeStyle;rounded=0;orthogonalLoop=1;jettySize=auto;html=1;exitX=0.5;exitY=1;exitDx=0;exitDy=0;entryX=0.5;entryY=0;entryDx=0;entryDy=0;" edge="1" parent="1" source="reZb2tm7C-XP5V8WI9Gy-58" target="reZb2tm7C-XP5V8WI9Gy-12">
          <mxGeometry relative="1" as="geometry">
            <Array as="points"/>
          </mxGeometry>
        </mxCell>
        <mxCell id="reZb2tm7C-XP5V8WI9Gy-58" value="退款申请成功事件" style="rounded=1;whiteSpace=wrap;html=1;" vertex="1" parent="1">
          <mxGeometry x="100" y="50" width="120" height="60" as="geometry"/>
        </mxCell>
      </root>
    </mxGraphModel>
  </diagram>
</mxfile>
